Coordinates
version=1
nRows=65
nColumns=12
inDegrees=yes

Units are S.I. units (second, meters, Newtons, ...)
Angles are in degrees

endheader
time	SC_y	SC_z	SC_x	AC_y	AC_z	AC_x	GH_y	GH_z	GH_yy	EL_x	PS_y
       0.0              -53.09          1.169          78.96          37.26         0.8826          6.519          123.7          6.026          148.5          58.33          27.81
    0.0278              -53.09          1.172          78.96          37.26         0.8818          6.518          123.7          6.031          148.5          58.33          27.81
   0.05559              -53.09          1.175          78.96          37.26          0.881          6.516          123.7          6.035          148.5          58.34          27.82
   0.08339              -53.09          1.177          78.96          37.26         0.8801          6.515          123.7           6.04          148.5          58.35          27.83
    0.1112              -53.09           1.18          78.95          37.26         0.8791          6.513          123.7          6.045          148.5          58.36          27.83
     0.139              -53.09          1.184          78.95          37.26         0.8781          6.511          123.7          6.051          148.5          58.36          27.84
    0.1668              -53.09          1.187          78.95          37.27          0.877           6.51          123.7          6.057          148.5          58.37          27.84
    0.1946              -53.09          1.191          78.95          37.27         0.8758          6.508          123.7          6.063          148.5          58.38          27.85
    0.2224              -53.08          1.195          78.95          37.27         0.8745          6.506          123.7           6.07          148.5          58.39          27.86
    0.2502              -53.08          1.199          78.95          37.27         0.8732          6.504          123.7          6.077          148.4           58.4          27.87
     0.278              -53.08          1.204          78.95          37.27         0.8717          6.501          123.6          6.085          148.4          58.41          27.87
    0.3058              -53.08          1.208          78.95          37.27         0.8701          6.499          123.6          6.093          148.4          58.43          27.88
    0.3336              -53.08          1.214          78.94          37.27         0.8685          6.496          123.6          6.102          148.4          58.44          27.89
    0.3614              -53.08          1.219          78.94          37.27         0.8666          6.493          123.6          6.112          148.4          58.45           27.9
    0.3891              -53.08          1.226          78.94          37.27         0.8647           6.49          123.6          6.122          148.3          58.47          27.92
    0.4169              -53.08          1.232          78.94          37.27         0.8625          6.486          123.6          6.134          148.3          58.48          27.93
    0.4447              -53.08          1.239          78.94          37.27         0.8602          6.483          123.5          6.146          148.3           58.5          27.94
    0.4725              -53.08          1.247          78.93          37.28         0.8577          6.479          123.5           6.16          148.3          58.52          27.96
    0.5003              -53.08          1.256          78.93          37.28         0.8549          6.474          123.5          6.175          148.2          58.54          27.97
    0.5281              -53.08          1.265          78.93          37.28         0.8519          6.469          123.5          6.191          148.2          58.57          27.99
    0.5559              -53.07          1.276          78.92          37.28         0.8486          6.464          123.4          6.209          148.2          58.59          28.01
    0.5837              -53.07          1.287          78.92          37.28         0.8449          6.458          123.4          6.228          148.1          58.62          28.03
    0.6115              -53.07            1.3          78.92          37.29         0.8409          6.451          123.4           6.25          148.1          58.65          28.05
    0.6393              -53.07          1.314          78.91          37.29         0.8364          6.444          123.3          6.274          148.1          58.69          28.08
    0.6671              -53.07          1.329          78.91          37.29         0.8314          6.436          123.3            6.3          148.0          58.73          28.11
    0.6949              -53.07          1.347           78.9          37.29         0.8259          6.427          123.2           6.33          147.9          58.77          28.14
    0.7227              -53.06          1.366          78.89           37.3         0.8197          6.417          123.2          6.363          147.9          58.82          28.18
    0.7505              -53.06          1.388          78.89           37.3         0.8127          6.406          123.1          6.401          147.8          58.87          28.22
    0.7783              -53.06          1.413          78.88          37.31         0.8048          6.393          123.1          6.443          147.7          58.93          28.27
    0.8061              -53.06          1.441          78.87          37.31         0.7958          6.379          123.0          6.491          147.6           59.0          28.32
    0.8339              -53.05          1.473          78.86          37.32         0.7855          6.362          122.9          6.546          147.5          59.08          28.38
    0.8617              -53.05          1.509          78.85          37.32         0.7738          6.343          122.8          6.609          147.4          59.17          28.45
    0.8895              -53.04          1.552          78.83          37.33         0.7602          6.321          122.7          6.682          147.3          59.28          28.53
    0.9173              -53.04          1.601          78.82          37.34         0.7445          6.296          122.5          6.766          147.1           59.4          28.62
    0.9451              -53.03          1.659           78.8          37.35          0.726          6.266          122.4          6.865          146.9          59.55          28.73
    0.9729              -53.02          1.727          78.77          37.36         0.7043          6.231          122.2          6.981          146.7          59.72          28.85
     1.001              -53.01          1.808          78.75          37.38         0.6784          6.189          121.9           7.12          146.4          59.92          29.01
     1.028               -53.0          1.904          78.71          37.39         0.6474          6.139          121.7          7.286          146.1          60.16          29.19
     1.056              -52.99          2.021          78.68          37.42         0.6099          6.079          121.3          7.486          145.7          60.45          29.41
     1.084              -52.97          2.164          78.63          37.44         0.5642          6.005          120.9          7.731          145.2          60.81          29.67
     1.112              -52.95          2.341          78.57          37.47         0.5076          5.913          120.4          8.034          144.6          61.25          30.01
      1.14              -52.92          2.561           78.5          37.51         0.4372            5.8          119.8          8.411          143.9          61.79          30.42
     1.167              -52.89          2.839          78.41          37.56         0.3484          5.656          119.0          8.887          143.0          62.49          30.94
     1.195              -52.84          3.191          78.29          37.63         0.2356          5.474          118.0          9.491          141.8          63.36           31.6
     1.223              -52.79          3.643          78.14          37.71        0.09111          5.241          116.7          10.26          140.3          64.49          32.44
     1.251              -52.72          4.222          77.95          37.81       -0.09424          4.942          115.1          11.26          138.3          65.93          33.53
     1.279              -52.63          4.961           77.7          37.95         -0.331          4.559          113.0          12.52          135.9          67.77          34.92
     1.306              -52.52          5.892          77.39          38.12        -0.6287          4.079          110.4          14.12          132.8          70.09          36.66
     1.334              -52.38          7.025          77.02          38.32        -0.9915          3.493          107.2          16.06          129.0          72.91          38.78
     1.362              -52.22          8.339          76.58          38.56         -1.412          2.814          103.5          18.31          124.6          76.19          41.25
      1.39              -52.05          9.762          76.11          38.81         -1.867          2.079          99.44          20.75          119.8          79.73          43.91
     1.418              -51.88          11.18          75.64          39.07         -2.323          1.344          95.41          23.19          115.1          83.28          46.58
     1.445              -51.72           12.5           75.2          39.31         -2.743          0.665           91.7          25.44          110.7          86.55          49.04
     1.473              -51.59          13.63          74.83          39.51         -3.106        0.07932          88.49          27.38          106.9          89.37          51.17
     1.501              -51.47          14.56          74.52          39.68         -3.404        -0.4013          85.86          28.98          103.8          91.69          52.91
     1.529              -51.39           15.3          74.28          39.82         -3.641        -0.7836          83.77          30.24          101.4          93.53           54.3
     1.557              -51.32          15.88          74.08          39.92         -3.826         -1.083          82.13          31.24          99.42          94.98          55.38
     1.584              -51.26          16.33          73.93           40.0          -3.97         -1.316          80.85          32.01          97.91           96.1          56.23
     1.612              -51.22          16.69          73.82          40.07         -4.083         -1.498          79.85          32.61          96.74          96.98          56.89
      1.64              -51.19          16.96          73.72          40.12         -4.172         -1.642          79.07          33.09          95.81          97.67          57.41
     1.668              -51.16          17.18          73.65          40.16         -4.242         -1.755          78.45          33.47          95.08          98.22          57.82
     1.696              -51.14          17.36          73.59          40.19         -4.299         -1.847          77.95          33.77          94.49          98.66          58.15
     1.723              -51.12           17.5          73.55          40.21         -4.345          -1.92          77.54          34.01          94.01          99.01          58.42
     1.751              -51.11          17.62          73.51          40.23         -4.382         -1.981          77.21          34.22          93.62          99.31          58.64
     1.779              -51.09          17.72          73.48          40.25         -4.413         -2.031          76.94          34.38          93.29          99.55          58.82
